<?xml version="1.0" standalone="no"?>
<!DOCTYPE svg PUBLIC "-//W3C//DTD SVG 20010904//EN"
 "http://www.w3.org/TR/2001/REC-SVG-20010904/DTD/svg10.dtd">
<svg version="1.0" xmlns="http://www.w3.org/2000/svg"
 width="225.000000pt" height="225.000000pt" viewBox="0 0 225.000000 225.000000"
 preserveAspectRatio="xMidYMid meet">
<metadata>
Created by potrace 1.14, written by Peter Selinger 2001-2017
</metadata>
<g transform="translate(0.000000,225.000000) scale(0.100000,-0.100000)"
fill="#000000" stroke="none">
<path d="M1175 2040 c-11 -5 -33 -9 -50 -10 -20 -2 -24 -4 -11 -7 10 -3 38 0
61 7 38 11 48 9 90 -9 26 -12 59 -21 72 -21 14 0 36 -9 50 -20 14 -11 40 -20
58 -20 38 0 112 -28 80 -31 -11 0 -3 -5 19 -10 55 -13 93 -44 121 -97 13 -26
24 -40 25 -32 0 9 -11 32 -25 53 -14 20 -23 37 -20 37 31 0 185 -173 185 -207
0 -9 11 -41 24 -72 13 -31 28 -84 33 -119 9 -63 9 -64 -39 -170 -46 -99 -54
-110 -109 -150 -32 -24 -71 -48 -87 -52 -15 -5 -55 -19 -89 -31 -50 -17 -86
-21 -176 -21 -69 0 -123 4 -136 11 -15 8 -41 10 -79 5 -31 -4 -88 -9 -127 -11
-38 -2 -95 -5 -125 -6 -30 -2 -72 -9 -93 -16 -28 -10 -45 -10 -69 -2 -17 6
-44 11 -61 11 -44 0 -194 76 -259 132 -37 32 -61 62 -69 86 -6 20 -20 49 -30
64 -15 20 -20 47 -22 120 -2 89 0 96 25 129 14 20 31 53 37 76 6 22 21 48 32
59 12 10 33 36 46 57 13 21 38 46 55 55 17 10 53 36 80 59 26 24 61 45 76 48
15 3 52 16 82 28 30 12 84 25 120 28 l65 6 -60 1 c-41 1 -74 -5 -104 -19 -25
-11 -65 -24 -89 -30 -30 -6 -61 -25 -95 -54 -27 -25 -53 -45 -58 -45 -5 0 -26
9 -46 20 -21 11 -47 20 -58 19 -14 0 -15 -2 -5 -5 8 -3 32 -12 52 -21 l36 -15
-35 -36 c-20 -20 -45 -37 -57 -38 -42 -5 -133 -45 -156 -69 -13 -14 -28 -25
-34 -25 -6 0 -36 -12 -66 -26 -30 -15 -80 -30 -110 -34 -54 -7 -55 -7 -12 -9
29 -1 67 9 112 29 38 17 73 30 79 30 6 0 26 14 45 30 31 28 142 73 158 64 3
-2 -6 -17 -22 -32 -15 -16 -33 -46 -39 -67 -5 -21 -23 -56 -38 -78 -26 -38
-28 -47 -27 -134 0 -76 4 -98 20 -121 11 -15 28 -48 38 -74 11 -30 29 -56 49
-69 18 -12 46 -34 62 -49 17 -16 41 -31 55 -35 14 -4 44 -19 67 -32 40 -23 41
-26 31 -51 -7 -15 -20 -36 -29 -47 -9 -11 -27 -41 -39 -67 l-22 -48 -272 -2
-271 -3 266 -2 266 -3 -19 -57 c-21 -65 -11 -113 23 -113 23 0 23 6 -2 -65
-19 -54 -20 -65 -9 -112 35 -145 214 -259 443 -282 360 -35 661 148 620 376
-9 48 -8 53 8 53 10 0 26 11 35 25 19 29 13 80 -16 138 l-20 37 333 2 332 2
-335 6 c-184 3 -336 7 -337 8 -2 1 -3 12 -3 25 0 13 -4 27 -9 32 -14 15 -51
117 -45 126 3 5 41 20 85 33 59 18 95 37 144 76 35 28 67 61 71 73 3 12 21 54
39 92 40 85 40 85 31 160 -7 53 -28 121 -72 223 -11 25 -11 32 -1 32 7 0 17
-4 23 -9 10 -10 135 -61 149 -61 5 0 17 -7 27 -17 17 -16 112 -59 153 -70 31
-8 -54 35 -94 48 -20 6 -41 17 -47 25 -6 7 -46 27 -90 43 -43 16 -92 36 -109
45 -16 9 -34 16 -40 16 -5 0 -27 21 -48 45 l-38 44 24 16 c67 43 141 45 225 5
35 -17 71 -30 80 -30 19 0 -83 46 -138 62 -48 15 -121 2 -164 -27 l-36 -24
-49 36 c-53 40 -159 82 -206 83 -16 0 -41 9 -55 20 -14 11 -35 20 -47 20 -12
0 -45 9 -73 20 -55 22 -65 23 -95 10z m-250 -1015 c57 -28 245 -27 330 2 44
15 84 20 153 19 112 -1 97 17 191 -233 35 -93 38 -115 15 -138 -27 -27 -46
-13 -74 54 -50 123 -140 192 -301 231 -155 37 -354 19 -477 -44 -64 -33 -135
-95 -128 -113 3 -8 1 -11 -4 -8 -5 3 -23 -19 -41 -50 -33 -58 -60 -71 -79 -36
-12 23 21 141 44 160 8 7 18 25 21 41 3 16 13 34 21 41 9 7 24 30 35 51 22 42
43 47 122 28 33 -9 51 -8 82 4 22 8 42 13 45 12 3 -1 23 -11 45 -21z m346 -84
c82 -26 181 -86 214 -131 14 -18 39 -70 57 -115 57 -145 41 -236 -60 -326
-102 -92 -247 -139 -429 -139 -62 0 -113 3 -113 8 0 4 23 22 50 40 88 57 56
71 -49 22 -42 -20 -61 -35 -58 -44 4 -11 -2 -12 -34 -5 -153 35 -283 136 -315
246 -14 49 -14 58 1 106 15 45 81 177 89 177 1 0 1 -24 -2 -54 -14 -168 181
-299 443 -299 199 0 364 75 426 195 19 38 27 132 11 142 -5 3 -7 -21 -4 -52
l5 -57 -42 42 c-151 153 -457 190 -674 81 -57 -28 -137 -99 -137 -122 0 -23
-20 20 -20 44 0 60 59 178 81 164 5 -3 9 -1 9 5 0 18 132 73 209 87 100 18
258 11 342 -15z m-74 -127 c42 -8 104 -29 138 -45 69 -32 145 -106 145 -139 0
-32 -84 -109 -153 -140 -90 -41 -169 -53 -299 -48 -141 6 -229 36 -306 104
-75 65 -79 77 -47 125 79 120 318 185 522 143z"/>
<path d="M1238 402 c-52 -17 -54 -21 -37 -89 l12 -45 44 6 c67 9 83 21 83 64
0 20 3 47 6 60 6 20 3 22 -27 21 -19 0 -55 -8 -81 -17z m62 -56 c0 -17 -7 -25
-25 -28 -28 -6 -35 -1 -35 23 0 16 7 19 53 28 4 0 7 -10 7 -23z"/>
<path d="M895 402 c-13 -13 -3 -30 22 -36 25 -7 48 8 37 25 -5 9 -52 18 -59
11z"/>
<path d="M880 331 c0 -17 6 -21 36 -21 28 0 35 3 32 18 -2 11 -14 18 -36 20
-27 3 -32 0 -32 -17z"/>
<path d="M985 2020 c-27 -10 -45 -19 -38 -19 6 -1 24 4 40 10 15 6 46 14 68
19 34 7 36 8 10 8 -16 0 -52 -8 -80 -18z"/>
<path d="M1409 1910 c-47 -25 -130 -120 -105 -120 2 0 16 18 31 40 31 44 80
79 129 90 27 7 28 8 6 9 -14 0 -41 -9 -61 -19z"/>
<path d="M152 1883 c-34 -9 -60 -18 -58 -20 5 -5 146 28 146 33 0 7 -22 3 -88
-13z"/>
<path d="M300 1890 l-55 -7 50 0 c28 0 64 3 80 7 26 7 27 8 5 7 -14 0 -50 -3
-80 -7z"/>
<path d="M634 1875 c-49 -25 -114 -97 -114 -127 0 -7 7 1 16 18 24 49 78 95
136 115 29 10 44 18 32 19 -11 0 -43 -11 -70 -25z"/>
<path d="M782 1890 c45 -13 84 -41 103 -72 9 -16 19 -27 22 -24 3 3 -6 21 -20
39 -27 36 -82 68 -114 66 -12 0 -9 -3 9 -9z"/>
<path d="M18 1853 c12 -2 32 -2 45 0 12 2 2 4 -23 4 -25 0 -35 -2 -22 -4z"/>
<path d="M2115 1829 c17 -7 46 -24 65 -39 32 -24 70 -44 70 -36 0 9 -113 76
-137 81 l-28 5 30 -11z"/>
<path d="M1530 1595 c0 -9 5 -15 11 -13 6 2 11 8 11 13 0 5 -5 11 -11 13 -6 2
-11 -4 -11 -13z"/>
<path d="M2223 1590 c-30 -12 -29 -18 2 -12 14 2 25 8 25 13 0 5 -1 9 -2 8 -2
0 -13 -4 -25 -9z"/>
<path d="M650 1580 c0 -5 7 -10 15 -10 8 0 15 5 15 10 0 6 -7 10 -15 10 -8 0
-15 -4 -15 -10z"/>
<path d="M1040 1321 c-40 -4 -55 -10 -55 -21 0 -10 9 -15 28 -14 15 0 70 1
122 2 77 2 95 5 95 17 0 8 -6 15 -12 16 -75 4 -132 4 -178 0z"/>
<path d="M1645 788 c4 -18 20 -89 36 -158 44 -184 54 -227 99 -425 47 -205 49
-210 56 -203 2 3 -2 32 -11 64 -8 33 -42 176 -75 319 -87 375 -102 435 -107
435 -3 0 -2 -15 2 -32z"/>
<path d="M466 799 c-23 -67 -226 -793 -222 -796 2 -2 7 4 9 14 118 409 174
607 197 688 16 54 27 101 25 104 -3 2 -7 -2 -9 -10z"/>
</g>
</svg>
